<?xml version="1.0" encoding="UTF-8"?>
<svg version="1.1" xmlns="http://www.w3.org/2000/svg" width="2000" height="1500">
<path d="M0 0 C660 0 1320 0 2000 0 C2000 495 2000 990 2000 1500 C1340 1500 680 1500 0 1500 C0 1005 0 510 0 0 Z " fill="#FEFEFE" transform="translate(0,0)"/>
<path d="M0 0 C1.07869606 -0.0049926 1.07869606 -0.0049926 2.17918396 -0.01008606 C3.69960902 -0.0151345 5.22004509 -0.01749503 6.74047852 -0.01733398 C9.02705037 -0.01950135 11.31312395 -0.03762568 13.59960938 -0.05664062 C24.99126953 -0.1023006 35.83920871 0.65832072 46.55859375 4.85546875 C47.23486816 5.11674561 47.91114258 5.37802246 48.60791016 5.6472168 C59.15959852 9.88317718 67.3317198 16.35856758 75.49609375 24.16796875 C76.18445312 24.7815625 76.8728125 25.39515625 77.58203125 26.02734375 C90.50467599 37.97951319 97.98216294 55.1824864 102.80859375 71.79296875 C103.0511792 72.62707275 103.29376465 73.46117676 103.54370117 74.32055664 C107.06133596 87.11161677 107.87581459 99.61288359 107.80859375 112.79296875 C107.80577393 113.59021362 107.8029541 114.3874585 107.80004883 115.2088623 C107.63265499 146.70575058 100.23449232 177.32585419 78.49609375 201.16796875 C77.83867188 201.895 77.18125 202.62203125 76.50390625 203.37109375 C59.86503714 220.87865884 35.56299407 229.59065684 11.77734375 230.35546875 C3.14378102 230.51912203 -5.09071304 230.27429338 -13.50390625 228.16796875 C-14.63699219 227.92304687 -15.77007813 227.678125 -16.9375 227.42578125 C-23.96287613 225.77361163 -30.29461954 223.60147988 -36.75390625 220.41796875 C-37.36645264 220.11938965 -37.97899902 219.82081055 -38.61010742 219.51318359 C-44.82074915 216.30318899 -49.67865133 212.40451778 -55.50390625 208.16796875 C-55.50390625 242.15796875 -55.50390625 276.14796875 -55.50390625 311.16796875 C-79.92390625 311.16796875 -104.34390625 311.16796875 -129.50390625 311.16796875 C-129.50390625 209.85796875 -129.50390625 108.54796875 -129.50390625 4.16796875 C-106.73390625 4.16796875 -83.96390625 4.16796875 -60.50390625 4.16796875 C-59.15286079 10.24767333 -58.20672064 15.16590261 -57.87890625 21.23046875 C-57.76675781 23.19693359 -57.76675781 23.19693359 -57.65234375 25.203125 C-57.60335938 26.18152344 -57.554375 27.15992188 -57.50390625 28.16796875 C-57.01921875 27.74386719 -56.53453125 27.31976562 -56.03515625 26.8828125 C-54.61341607 25.63878984 -53.18868234 24.39818389 -51.76171875 23.16015625 C-50.37961346 21.94065158 -49.01519882 20.70023589 -47.68359375 19.42578125 C-35.08195877 7.58788173 -17.29468951 0.02829214 0 0 Z " fill="#001F3F" transform="translate(1226.50390625,642.83203125)"/>
<path d="M0 0 C0.78906738 0.24137695 1.57813477 0.48275391 2.39111328 0.73144531 C29.53279593 9.30931759 49.33605265 25.96643929 62.97900391 51.01025391 C67.44919067 59.72188044 70.18996651 68.98757821 72.375 78.5 C72.54298096 79.22936768 72.71096191 79.95873535 72.8840332 80.71020508 C73.03316162 81.4142749 73.18229004 82.11834473 73.3359375 82.84375 C73.46532715 83.45412109 73.5947168 84.06449219 73.72802734 84.69335938 C74.13046097 88.10645889 74 91.56325719 74 95 C49.58 95 25.16 95 0 95 C-1.98 89.555 -1.98 89.555 -4 84 C-9.63145393 75.2215571 -20.19273517 70.6341827 -30 68 C-44.342274 65.79237169 -62.52512951 64.91169395 -75.25 72.875 C-78.34814749 75.26133206 -80.68389459 77.22716448 -82 81 C-82.71893935 86.60564305 -82.50462143 91.39392612 -79 96 C-63.71026765 108.58657525 -40.95969526 111.04497792 -22.24591064 115.3132782 C5.2235477 121.58327658 5.2235477 121.58327658 18 126 C19.41247408 126.46571307 20.82524817 126.93051701 22.23828125 127.39453125 C45.04721335 135.00767303 64.01190877 146.07666186 75.14257812 168.11816406 C84.92265356 189.58309045 83.79248308 218.6735868 75.7434082 240.41259766 C66.73576414 263.36094471 49.26892184 279.31248022 27.125 289.3125 C-12.29009682 306.35482109 -59.94698792 306.84592216 -100.0390625 291.55883789 C-111.82524152 286.79622966 -122.3923924 280.31178384 -132 272 C-133.010625 271.236875 -134.02125 270.47375 -135.0625 269.6875 C-139.578992 265.5553903 -143.25411352 260.82832303 -147 256 C-147.62261719 255.21625 -148.24523437 254.4325 -148.88671875 253.625 C-160.96604043 237.55543049 -165.56349682 217.49202543 -168 198 C-142.59 198 -117.18 198 -91 198 C-88.69 202.62 -86.38 207.24 -84 212 C-75.44071292 222.53450717 -63.79155281 226.11968499 -51 229 C-49.84371094 229.29003906 -49.84371094 229.29003906 -48.6640625 229.5859375 C-34.03440492 231.85975525 -16.33081909 230.92553514 -3.125 223.6875 C0.45320068 221.03995241 1.86138481 218.34097039 3 214 C3.61968878 209.05817808 3.57224414 205.2637058 1.5 200.6875 C-3.98710382 194.7888634 -10.6846794 192.08192789 -18.3125 189.9375 C-19.62226807 189.55754883 -19.62226807 189.55754883 -20.95849609 189.16992188 C-28.19141722 187.12087664 -35.48161105 185.5289209 -42.84765625 184.046875 C-107.97767833 170.93156399 -107.97767833 170.93156399 -132 151 C-132.81726563 150.38640625 -133.63453125 149.7728125 -134.4765625 149.140625 C-150.66967399 135.40405364 -157.17974555 114.40707483 -159 94 C-160.39596128 70.29272657 -155.50961393 48.11815562 -139.6875 29.8125 C-126.47113656 15.80183091 -109.74260779 7.11534503 -91.14331055 2.54858398 C-89.59478008 2.15223497 -88.05527513 1.72003669 -86.52270508 1.26586914 C-60.34465085 -6.41343848 -26.20597253 -8.09803251 0 0 Z " fill="#FF4136" transform="translate(433,571)"/>
<path d="M0 0 C24.75 0 49.5 0 75 0 C75.33 31.68 75.66 63.36 76 96 C79.3 93.03 82.6 90.06 86 87 C89.69539164 84.73928982 93.10740045 82.80633521 97 81 C97.93972656 80.55914063 98.87945313 80.11828125 99.84765625 79.6640625 C122.34113743 70.0861931 150.47778868 68.24836241 173.44262695 77.30761719 C192.10448844 85.28879065 204.13994438 100.40533408 212.1875 118.625 C213.98144967 123.48859689 215.30901259 128.48995401 216.625 133.5 C216.8314917 134.26393066 217.0379834 135.02786133 217.25073242 135.81494141 C221.8099727 154.05560771 221.27585081 172.83327587 221.20278788 191.48937654 C221.19011866 195.28094526 221.18909747 199.07251861 221.18673706 202.86410522 C221.18056912 210.01401954 221.16422316 217.16387126 221.14403808 224.31375825 C221.11730697 233.99658941 221.10666848 243.6794382 221.09503365 253.36229706 C221.07633805 268.57491141 221.03646164 283.7873938 221 299 C196.25 299 171.5 299 146 299 C145.96261719 289.94820312 145.92523437 280.89640625 145.88671875 271.5703125 C145.8564348 265.82810982 145.825405 260.08592713 145.79101562 254.34375 C145.73659682 245.23406815 145.68518097 236.12444178 145.65356445 227.01464844 C145.63052081 220.37903477 145.5970523 213.74356759 145.55129844 207.10807025 C145.52745156 203.59775267 145.50866714 200.08757939 145.50238609 196.57718277 C145.49516171 192.64911339 145.46465287 188.7214041 145.43237305 184.79345703 C145.43380814 183.641866 145.43524323 182.49027496 145.4367218 181.30378723 C145.30605989 170.02451568 142.69508896 159.33772546 134.9921875 150.765625 C126.70377774 142.85264843 118.95760298 141.43118603 107.8137207 141.43920898 C99.67847325 141.7309313 93.25329895 144.29133079 87.078125 149.67578125 C77.60819488 159.87236442 75.55074895 173.42364236 75.56762695 186.81518555 C75.5574353 188.04574173 75.54724365 189.27629791 75.53674316 190.54414368 C75.51191778 193.88235697 75.49992322 197.22013196 75.49388909 200.55839896 C75.4844396 204.06046896 75.45823153 207.56241496 75.43388367 211.06440735 C75.39039431 217.67971883 75.36173998 224.295006 75.33856028 230.91041642 C75.30874529 239.18970537 75.25886984 247.4688587 75.20898438 255.74804688 C75.12019366 270.49865643 75.06148819 285.24919531 75 300 C50.25 300 25.5 300 0 300 C0 201 0 102 0 0 Z " fill="#012040" transform="translate(561,570)"/>
<path d="M0 0 C1.48113281 0.81597656 1.48113281 0.81597656 2.9921875 1.6484375 C27.27492272 16.07730915 43.18690416 41.21384029 50.09375 68.12109375 C57.68394812 100.60845034 54.61383845 138.15298012 37.0234375 166.96484375 C27.69033965 180.96449052 16.48486553 191.64334681 2 200 C1.04609375 200.55429687 0.0921875 201.10859375 -0.890625 201.6796875 C-30.66443518 217.73093154 -69.00600416 219.45947938 -101.0625 209.875 C-115.28607439 205.25418918 -128.59447014 198.71704793 -140 189 C-140.91910156 188.25363281 -141.83820312 187.50726562 -142.78515625 186.73828125 C-163.28551086 169.2942383 -173.80621521 144.30409724 -177 118 C-177.41654405 112.6006811 -177.43503994 107.20088238 -177.39111328 101.78833008 C-177.37497924 99.43447196 -177.39110499 97.08232366 -177.41015625 94.72851562 C-177.45277476 64.2848285 -166.60416197 37.68562193 -145.375 15.875 C-130.456409 1.07338592 -111.52851619 -8.69898497 -91 -13 C-90.31357422 -13.14808105 -89.62714844 -13.29616211 -88.91992188 -13.44873047 C-58.1780546 -19.9218027 -27.37542279 -15.15505814 0 0 Z " fill="#001F3F" transform="translate(1001,658)"/>
<path d="M0 0 C28.38 0 56.76 0 86 0 C88.97 5.28 91.94 10.56 95 16 C97.09078589 19.59268771 99.18811246 23.17757319 101.3125 26.75 C101.85229492 27.66031982 102.39208984 28.57063965 102.94824219 29.50854492 C104.62940338 32.34068122 106.31407542 35.170697 108 38 C108.86020752 39.44463623 108.86020752 39.44463623 109.73779297 40.91845703 C111.40614168 43.71790561 113.07730677 46.51564549 114.75 49.3125 C115.26344971 50.17262695 115.77689941 51.03275391 116.3059082 51.91894531 C116.77730225 52.70495117 117.24869629 53.49095703 117.734375 54.30078125 C118.14913086 54.99341064 118.56388672 55.68604004 118.99121094 56.3996582 C119.9027435 57.97644759 119.9027435 57.97644759 121 59 C121.41137207 58.27748047 121.82274414 57.55496094 122.24658203 56.81054688 C131.2492362 41.00660836 140.3121321 25.24219035 149.51464844 9.5534668 C151.36103558 6.37934399 153.17813613 3.18826177 155 0 C182.72 0 210.44 0 239 0 C235.58178099 6.15279421 232.14238728 11.96114299 228.1875 17.73828125 C227.62927551 18.56103043 227.07105103 19.3837796 226.49591064 20.23146057 C225.29339077 22.00368049 224.08934553 23.77486618 222.88391113 25.54510498 C219.63734295 30.31419226 216.4036957 35.09200428 213.171875 39.87109375 C212.50250916 40.86087219 211.83314331 41.85065063 211.14349365 42.87042236 C202.52584918 55.63540635 194.07693834 68.51169716 185.6328125 81.3918457 C185.05833374 82.26680191 184.48385498 83.14175812 183.89196777 84.04322815 C182.78431845 85.73139259 181.67885324 87.42099254 180.57580566 89.11216736 C178.16489792 92.79241065 175.72381933 96.42408185 173.10742188 99.96191406 C172.67145691 100.55795441 172.23549194 101.15399475 171.78631592 101.76809692 C170.6426206 103.31574924 169.4761041 104.84646735 168.30761719 106.37548828 C166.69115329 108.92052486 166.69115329 108.92052486 167.60546875 111.5871582 C168.91696358 113.85632897 170.24628193 116.02467985 171.765625 118.16015625 C172.31863281 118.94326172 172.87164063 119.72636719 173.44140625 120.53320312 C174.03824219 121.36787109 174.63507813 122.20253906 175.25 123.0625 C176.52617514 124.86579096 177.80221303 126.66917907 179.078125 128.47265625 C179.73103516 129.39191895 180.38394531 130.31118164 181.05664062 131.25830078 C184.05741609 135.49180687 187.02804822 139.74623615 190 144 C191.16650256 145.66678153 192.33316974 147.33344786 193.5 149 C200.5 159 207.5 169 214.5 179 C215.0782251 179.8259668 215.6564502 180.65193359 216.25219727 181.50292969 C217.41180221 183.15964702 218.57114724 184.81654633 219.73022461 186.47363281 C222.75276392 190.79409857 225.78056242 195.11074531 228.81640625 199.421875 C229.75709961 200.75992188 229.75709961 200.75992188 230.71679688 202.125 C231.90781762 203.81889617 233.10041165 205.51168775 234.29492188 207.203125 C234.83826172 207.9765625 235.38160156 208.75 235.94140625 209.546875 C236.41263916 210.21557617 236.88387207 210.88427734 237.36938477 211.57324219 C239.66785445 214.99393222 241.83130633 218.49602614 244 222 C232.86566614 222.46506424 221.7336663 222.8195407 210.59157181 223.03624344 C205.4161024 223.14030882 200.24730824 223.28114037 195.07568359 223.50878906 C161.74361281 224.93797609 161.74361281 224.93797609 154.02709961 220.15872192 C149.6213694 215.61656689 147.52317313 210.44361489 145.76550293 204.44012451 C144.73850423 201.16645355 143.08010844 198.52940296 141.1875 195.68359375 C140.65527832 194.80662842 140.12305664 193.92966309 139.57470703 193.02612305 C139.05505371 192.17187744 138.53540039 191.31763184 138 190.4375 C137.42749512 189.49495361 136.85499023 188.55240723 136.26513672 187.58129883 C131.79420339 180.24446153 127.223329 172.97420636 122.5546875 165.76147461 C122.08546875 165.02936768 121.61625 164.29726074 121.1328125 163.54296875 C120.71918457 162.90383545 120.30555664 162.26470215 119.87939453 161.60620117 C119 160 119 160 119 158 C118.34 158 117.68 158 117 158 C116.73985107 158.70600342 116.47970215 159.41200684 116.21166992 160.1394043 C114.91036837 163.21160867 113.35040402 165.92111159 111.61328125 168.76953125 C110.92903076 169.89464111 110.24478027 171.01975098 109.53979492 172.17895508 C108.79751114 173.39022734 108.05507609 174.60140692 107.3125 175.8125 C106.55099531 177.06067339 105.78968576 178.30896584 105.02856445 179.55737305 C99.36179873 188.83775439 93.62030608 198.07100541 87.82348633 207.27075195 C87.24622803 208.18816162 86.66896973 209.10557129 86.07421875 210.05078125 C85.57494873 210.84137939 85.07567871 211.63197754 84.5612793 212.4465332 C82.63912391 215.59021157 80.82814879 218.80073961 79 222 C51.61 222 24.22 222 -4 222 C-0.71166508 216.08099715 2.52509826 210.56633979 6.375 205.0625 C7.52972071 203.39266987 8.68326793 201.72202792 9.8359375 200.05078125 C10.4865918 199.10799316 11.13724609 198.16520508 11.80761719 197.19384766 C15.74278611 191.46112162 19.63127954 185.69678936 23.52380371 179.93505859 C25.00922608 177.7363436 26.49524248 175.53803127 27.98144531 173.33984375 C29.48936641 171.10953278 30.99726538 168.87920693 32.50500488 166.64877319 C36.81593362 160.27153024 41.12843254 153.89535423 45.44506836 147.52197266 C47.21191234 144.91298808 48.9755047 142.30185155 50.73657227 139.68896484 C54.51819864 134.0850125 58.32374466 128.51009095 62.26953125 123.01953125 C62.89778809 122.13644287 63.52604492 121.25335449 64.17333984 120.34350586 C65.30774445 118.75618716 66.45674202 117.17914352 67.62353516 115.61547852 C68.10741699 114.93541748 68.59129883 114.25535645 69.08984375 113.5546875 C69.51128662 112.98218262 69.93272949 112.40967773 70.36694336 111.81982422 C71.19964317 109.95782445 71.19964317 109.95782445 70.46435547 107.81542969 C68.39243523 103.83187114 65.96490786 100.1353848 63.48046875 96.3984375 C62.91809006 95.54523422 62.35571136 94.69203094 61.77629089 93.81297302 C59.91806102 90.99717744 58.05297502 88.18599989 56.1875 85.375 C54.88801141 83.4098632 53.58869749 81.44461088 52.28955078 79.47924805 C41.89337983 63.77218677 31.3829377 48.14228395 20.80932617 32.55419922 C15.3628341 24.51917277 9.95217091 16.46464683 4.6640625 8.32421875 C4.19076508 7.59789749 3.71746765 6.87157623 3.22982788 6.12324524 C0 1.12202113 0 1.12202113 0 0 Z " fill="#001F3F" transform="translate(1488,647)"/>
<path d="M0 0 C24.75 0 49.5 0 75 0 C75 73.26 75 146.52 75 222 C50.25 222 25.5 222 0 222 C0 148.74 0 75.48 0 0 Z " fill="#011F3F" transform="translate(1377,647)"/>
<path d="M0 0 C10.96721738 8.09154556 16.97117195 19.96258653 19.1875 33.3125 C20.28013669 49.07036976 18.23968728 63.84287901 8.41796875 76.61328125 C0.4995536 84.96068503 -9.27348707 87.83044571 -20.5390625 88.55078125 C-35.24239839 88.83070448 -46.77416621 85.66101967 -57.80859375 75.46875 C-68.2491634 64.51176507 -70.43678266 50.58938739 -70.12109375 36.0859375 C-69.49670293 23.00222948 -63.88975795 12.8920676 -54.5 4 C-39.95316936 -8.30502455 -16.38850597 -10.0746762 0 0 Z " fill="#FDFDFD" transform="translate(1241.8125,716.6875)"/>
<path d="M0 0 C8.58061806 7.12407617 13.73644336 16.15281126 15.44921875 27.1796875 C16.78650235 42.28603928 13.4696533 54.44481116 3.859375 66.109375 C-4.28027218 75.03425873 -15.90229177 78.62417999 -27.65234375 79.37890625 C-42.18544818 79.84615684 -53.66921573 75.7230594 -64.30078125 65.8671875 C-72.40518302 57.36790769 -74.90195757 47.87787785 -74.86328125 36.4296875 C-74.87939453 35.49125 -74.89550781 34.5528125 -74.91210938 33.5859375 C-74.9207121 21.12919124 -70.98075782 11.99140665 -62.4453125 2.94921875 C-44.78073676 -13.71488545 -19.46642535 -13.8918135 0 0 Z " fill="#012040" transform="translate(1444.55078125,552.8203125)"/>
<path d="M0 0 C9.00630994 5.88471993 15.08544279 16.18523503 17.62109375 26.53515625 C20.55711333 41.57972557 20.25819557 55.85864902 12.61328125 69.46875 C11.19715716 71.48624186 9.71113762 73.22789548 8 75 C7.42636719 75.62390625 6.85273437 76.2478125 6.26171875 76.890625 C-3.16331696 86.17906599 -14.60635937 86.61923963 -27.19311523 86.54321289 C-37.42603042 86.23448533 -45.89035468 84.00166642 -53.48046875 76.70703125 C-62.87888403 66.14891435 -66.39589407 52.62073925 -66.28515625 38.68359375 C-65.21166208 24.81640199 -60.23497451 12.49763501 -50 3 C-35.78574651 -7.4326837 -15.44489778 -8.80649743 0 0 Z " fill="#FDFDFD" transform="translate(962,717)"/>
</svg>
